<svg width="151.000000" height="33.000000" viewBox="0 0 151 33" fill="none" xmlns="http://www.w3.org/2000/svg" xmlns:xlink="http://www.w3.org/1999/xlink">
	<desc>
			Created with Pixso.
	</desc>
	<defs>
		<filter id="filter_0_2234_dd" x="0.000000" y="0.000000" width="151.000000" height="33.000000" filterUnits="userSpaceOnUse" color-interpolation-filters="sRGB">
			<feFlood flood-opacity="0" result="BackgroundImageFix"/>
			<feColorMatrix in="SourceAlpha" type="matrix" values="0 0 0 0 0 0 0 0 0 0 0 0 0 0 0 0 0 0 127 0" result="hardAlpha"/>
			<feOffset dx="0" dy="4"/>
			<feGaussianBlur stdDeviation="1.33333"/>
			<feComposite in2="hardAlpha" operator="out" k2="-1" k3="1"/>
			<feColorMatrix type="matrix" values="0 0 0 0 0 0 0 0 0 0 0 0 0 0 0 0 0 0 0.25 0"/>
			<feBlend mode="normal" in2="BackgroundImageFix" result="effect_dropShadow_1"/>
			<feBlend mode="normal" in="SourceGraphic" in2="effect_dropShadow_1" result="shape"/>
		</filter>
	</defs>
	<g filter="url(#filter_0_2234_dd)">
		<path id="audiophile" d="M11.3625 20.3848C12.9937 20.3848 14.4497 19.8477 15.5996 18.915L16.0137 19.9092L19.7527 19.9092L19.7527 5.85352L16.1479 5.85254L15.6531 6.93945C14.4937 5.98242 13.0164 5.42969 11.3625 5.42969C7.06909 5.42969 4 8.52734 4 12.8809C4 17.249 7.06909 20.3848 11.3625 20.3848ZM12.0093 16.0977C13.821 16.0977 15.1526 14.7275 15.1526 12.8926C15.1526 11.0674 13.821 9.69727 12.0093 9.69727C10.1868 9.69727 8.86621 11.0674 8.86621 12.8926C8.86621 14.7275 10.1978 16.0977 12.0093 16.0977ZM29.5439 20.3848C33.6917 20.3848 36.4541 17.8232 36.4541 13.8896L36.4541 5.86816L31.6177 5.86816L31.6177 13.6797C31.6177 15.1484 30.8359 16.0352 29.5439 16.0352C28.2517 16.0352 27.4548 15.1631 27.4548 13.6797L27.4548 5.86816L22.6184 5.86816L22.6184 13.8896C22.6184 17.8232 25.396 20.3848 29.5439 20.3848ZM45.8721 20.3994C47.5076 20.3994 48.9648 19.8428 50.1074 18.8799L50.5635 19.9238L54.1426 19.9238L54.1426 0.791992L49.3611 0.791992L49.3611 6.38281C48.3547 5.75684 47.1685 5.40723 45.8721 5.40723C41.5635 5.40723 38.4944 8.52734 38.4944 12.8965C38.4944 17.2646 41.5635 20.3994 45.8721 20.3994ZM46.519 16.1133C48.3306 16.1133 49.6621 14.7314 49.6621 12.8965C49.6621 11.0605 48.3306 9.67969 46.519 9.67969C44.7075 9.67969 43.3757 11.0605 43.3757 12.8965C43.3757 14.7314 44.7075 16.1133 46.519 16.1133ZM61.9756 4.1084L61.9756 0L57.2131 0L57.2131 4.1084L61.9756 4.1084ZM62.0127 19.9238L62.0127 5.86816L57.1763 5.86816L57.1763 19.9238L62.0127 19.9238ZM72.1096 20.3848C76.6726 20.3848 79.9822 17.2383 79.9822 12.8965C79.9822 8.53906 76.6726 5.40723 72.1096 5.40723C67.5315 5.40723 64.2371 8.53906 64.2371 12.8965C64.2371 17.2383 67.5315 20.3848 72.1096 20.3848ZM72.1096 16.0361C73.873 16.0361 75.1377 14.7549 75.1377 12.8965C75.1377 11.0488 73.873 9.75684 72.1096 9.75684C70.3459 9.75684 69.0813 11.0381 69.0813 12.8965C69.0813 14.7549 70.3459 16.0352 72.1096 16.0361ZM86.9978 25L86.9978 19.4658C87.9888 20.0654 89.1511 20.3994 90.4209 20.3994C94.7144 20.3994 97.7834 17.2754 97.7834 12.8965C97.7834 8.5166 94.7144 5.40723 90.4209 5.40723C88.7522 5.40723 87.2661 5.98535 86.1113 6.98438L85.5056 5.86816L82.2166 5.86816L82.2166 25L86.9978 25ZM89.7739 16.1123C91.5742 16.1123 92.917 14.7422 92.917 12.8955C92.917 11.0488 91.5854 9.67871 89.7739 9.67871C87.9624 9.67871 86.6306 11.0488 86.6306 12.8955C86.6306 14.7422 87.9624 16.1123 89.7739 16.1123ZM104.839 19.9238L104.839 12.418C104.839 10.6143 105.751 9.57422 107.215 9.57422C108.477 9.57422 109.046 10.4014 109.046 12.0225L109.046 19.9238L113.882 19.9238L113.882 11.46C113.882 7.81641 111.811 5.45215 108.587 5.45215C107.188 5.45215 105.873 5.95898 104.839 6.79297L104.839 0.791992L100.002 0.791992L100.002 19.9238L104.839 19.9238ZM121.573 4.1084L121.573 0L116.811 0L116.811 4.1084L121.573 4.1084ZM121.611 19.9238L121.611 5.86816L116.774 5.86816L116.774 19.9238L121.611 19.9238ZM129.489 19.9238L129.489 0.791992L124.653 0.791992L124.653 19.9238L129.489 19.9238ZM139.34 20.3848C142.863 20.3848 145.704 18.3809 146.692 15.1729L141.879 15.1729C141.414 15.9961 140.47 16.4912 139.34 16.4912C137.813 16.4912 136.79 15.6572 136.474 14.0449L146.9 14.0449C146.963 13.6104 147 13.1865 147 12.7637L147 12.7627C147 8.63965 143.866 5.40723 139.34 5.40723C134.933 5.40723 131.714 8.57617 131.714 12.8857C131.714 17.1797 134.959 20.3848 139.34 20.3848ZM142.236 11.3643C141.811 9.95898 140.8 9.20117 139.34 9.20117C137.931 9.20117 136.95 9.96777 136.559 11.3643L142.236 11.3643Z" clip-rule="evenodd" fill="#FFFFFF" fill-opacity="1.000000" fill-rule="evenodd"/>
	</g>
</svg>
